<?xml version="1.0" encoding="utf-8"?>
<!-- Generator: Adobe Illustrator 23.0.1, SVG Export Plug-In . SVG Version: 6.00 Build 0)  -->
<svg version="1.1" id="Layer_1" xmlns="http://www.w3.org/2000/svg" xmlns:xlink="http://www.w3.org/1999/xlink" x="0px" y="0px"
	 viewBox="0 0 465.9 285" style="enable-background:new 0 0 465.9 285;" xml:space="preserve">
<path d="M390.3,0h-224c-19.6,0-38.1,7.3-52.1,20.7L9,121c-5.6,5.6-9,13.4-9,21.8s3.4,16.2,9.5,21.8l104.7,99.7
	c14,13.4,32.5,20.7,52.1,20.7h224c41.4,0,75.6-34.2,75.6-75.6l0-133.8C465.9,34.2,431.8,0,390.3,0L390.3,0z M324.8,210.6l-41.4-39.8
	l-39.8,41.4l-28-27.4l39.8-41.4l-41.4-39.8l27.4-28l41.4,39.8l39.8-41.4l28,27.4l-39.8,41.4l41.4,39.8L324.8,210.6z"/>
</svg>
