<?xml version="1.0" encoding="utf-8"?>
<!-- Generator: Adobe Illustrator 23.0.1, SVG Export Plug-In . SVG Version: 6.00 Build 0)  -->
<svg version="1.1" id="Layer_1" xmlns="http://www.w3.org/2000/svg" xmlns:xlink="http://www.w3.org/1999/xlink" x="0px" y="0px"
	 viewBox="0 0 291.2 392" style="enable-background:new 0 0 291.2 392;" xml:space="preserve">
<path d="M78.4,392h140c32.4,0,61.6-37.6,61.6-70l0-226.8H16.8V322C16.8,354.4,46,392,78.4,392L78.4,392z M173.6,176.4
	c0-6.2,9.4-9.9,15.5-9.9c6.2,0,18.1,3.7,18.1,9.9v134.4c0,6.2-11.9,12.5-18.1,12.5s-15.5-6.3-15.5-12.5V176.4z M89.6,176.4
	c0-6.2,9.4-9.9,15.5-9.9c6.2,0,18.1,3.7,18.1,9.9v134.4c0,6.2-11.9,12.5-18.1,12.5s-15.5-6.3-15.5-12.5V176.4z"/>
<path d="M288.7,67.7c0-14.2-17.3-22.9-36.7-22.9H39.2C19.8,44.8,0,55.8,0,70l0,8.4h291.2L288.7,67.7z"/>
<path d="M201.6,19.6c0-10.9-9.4-19.6-16.8-19.6H112c-7.4,0-16.8,8.7-16.8,19.6l0,8.4h106.4L201.6,19.6z"/>
</svg>
